<?xml version="1.0" standalone="no"?>
<!DOCTYPE svg PUBLIC "-//W3C//DTD SVG 20010904//EN"
 "http://www.w3.org/TR/2001/REC-SVG-20010904/DTD/svg10.dtd">
<svg version="1.0" xmlns="http://www.w3.org/2000/svg"
 width="960.000000pt" height="960.000000pt" viewBox="0 0 960.000000 960.000000"
 preserveAspectRatio="xMidYMid meet">
<metadata>
Created by potrace 1.14, written by Peter Selinger 2001-2017
</metadata>
<g transform="translate(0.000000,960.000000) scale(0.100000,-0.100000)"
fill="#000000" stroke="none">
<path d="M4233 9589 c-7 -7 -13 -10 -13 -6 0 13 -198 -140 -199 -154 -1 -3
-21 -27 -46 -53 -48 -52 -135 -171 -135 -186 0 -6 -4 -10 -10 -10 -5 0 -10 -4
-10 -10 0 -5 -14 -33 -31 -61 -44 -76 -128 -285 -144 -363 -3 -10 -9 -33 -14
-50 -6 -17 -12 -42 -15 -56 -3 -14 -12 -61 -21 -105 -9 -44 -17 -93 -19 -110
-3 -16 -7 -55 -11 -85 -4 -30 -9 -68 -11 -85 -5 -51 -17 -286 -17 -360 0 -94
13 -389 19 -417 2 -13 6 -50 9 -83 3 -51 17 -156 41 -330 13 -91 92 -370 125
-440 16 -35 70 -189 75 -214 3 -14 7 -28 10 -32 4 -7 21 -86 30 -144 3 -16 7
-41 10 -55 17 -94 24 -403 11 -550 -7 -86 -28 -239 -43 -314 -2 -11 -9 -46
-14 -76 -6 -30 -19 -89 -31 -130 -11 -41 -22 -86 -25 -100 -2 -14 -16 -60 -31
-104 -21 -66 -57 -196 -78 -283 -11 -47 -66 -142 -99 -171 -30 -26 -42 -30
-75 -27 -45 5 -86 27 -116 65 -47 57 -56 93 -61 229 -2 57 -6 116 -9 130 -3
14 -8 42 -10 61 -29 193 -100 393 -204 575 -96 166 -274 363 -453 501 -35 27
-65 51 -68 54 -42 42 -291 181 -443 247 -78 34 -161 46 -177 25 -3 -4 -14 -12
-24 -18 -23 -12 -56 -54 -59 -75 -2 -8 -6 -19 -10 -26 -4 -6 -3 -14 3 -18 6
-4 8 -10 5 -14 -2 -5 4 -32 14 -62 11 -30 22 -85 26 -124 14 -128 9 -423 -9
-620 -9 -95 -17 -165 -22 -187 -2 -13 -6 -45 -9 -73 -2 -27 -6 -61 -9 -75 -3
-14 -7 -43 -11 -65 -10 -71 -33 -186 -65 -330 -39 -169 -36 -157 -43 -175 -3
-8 -13 -44 -22 -79 -9 -36 -23 -83 -31 -106 -7 -23 -15 -50 -17 -61 -2 -10
-13 -50 -25 -89 -18 -63 -68 -260 -78 -310 -2 -11 -6 -31 -9 -45 -6 -29 -7
-35 -29 -150 -28 -155 -49 -297 -62 -415 -1 -16 -3 -30 -4 -30 0 0 -3 -29 -6
-65 -3 -36 -7 -83 -9 -105 -18 -196 -25 -635 -12 -745 10 -83 16 -122 22 -150
3 -14 8 -41 11 -60 14 -85 81 -318 96 -334 4 -6 8 -20 8 -32 0 -12 5 -24 10
-26 6 -2 12 -14 15 -28 15 -77 177 -360 291 -506 94 -121 248 -284 330 -348
15 -12 53 -42 84 -68 32 -27 63 -48 68 -48 6 0 12 -4 14 -9 5 -13 200 -141
215 -141 7 0 13 -4 13 -9 0 -13 309 -163 440 -214 229 -89 463 -155 672 -191
15 -3 31 -7 35 -9 5 -3 35 -8 68 -12 32 -3 62 -8 66 -11 3 -2 26 -6 50 -8 24
-3 85 -10 134 -15 279 -32 765 -35 1030 -6 28 3 70 7 95 10 25 2 56 7 70 9 14
2 52 7 85 11 32 4 62 8 66 11 4 2 31 7 61 10 29 3 56 8 60 10 4 3 28 7 54 10
26 2 51 7 55 10 5 3 19 7 32 10 48 9 69 13 85 18 9 3 29 7 43 10 33 5 259 65
279 73 8 3 20 7 25 8 6 0 17 4 25 7 8 4 60 21 115 38 121 39 352 129 455 177
173 81 300 145 306 154 3 5 10 7 15 4 5 -4 9 -1 9 4 0 6 5 11 10 11 6 0 35 15
65 34 29 19 56 32 59 29 3 -4 6 -1 6 5 0 7 7 12 15 12 8 0 15 3 15 8 0 4 17
16 38 27 47 25 166 107 170 117 2 4 8 8 13 8 5 0 17 6 26 14 193 158 321 280
394 377 23 30 113 161 147 214 7 11 44 83 82 160 90 183 161 394 195 588 3 15
8 42 11 60 3 17 7 48 9 67 2 19 6 51 9 70 14 86 21 399 11 520 -3 30 -7 82 -9
115 -4 60 -21 198 -31 245 -3 14 -7 41 -9 60 -3 19 -7 46 -10 60 -3 14 -11 50
-17 80 -5 30 -12 66 -15 80 -41 205 -189 674 -275 867 -11 24 -19 45 -19 48 0
44 -251 511 -282 523 -4 2 -8 8 -8 14 0 8 -31 54 -65 95 -12 15 -33 43 -75 98
-16 22 -33 45 -38 50 -27 35 -73 114 -112 191 -25 49 -48 91 -51 94 -3 3 -12
23 -19 45 -7 22 -20 51 -29 65 -9 13 -15 25 -13 27 1 2 -4 18 -12 36 -18 45
-91 267 -111 342 -28 102 -35 129 -40 150 -2 11 -9 39 -15 63 -22 90 -42 184
-41 197 0 2 -5 19 -10 37 -5 18 -11 49 -14 68 -3 19 -7 46 -10 60 -3 14 -8 41
-11 60 -3 19 -7 42 -9 50 -2 8 -7 40 -10 70 -3 30 -8 62 -10 70 -2 8 -7 39
-10 69 -3 29 -13 67 -21 82 -14 27 -54 60 -78 66 -6 1 -21 4 -33 7 -66 14
-137 -40 -225 -174 -83 -125 -167 -323 -184 -430 -3 -19 -8 -38 -10 -41 -5 -8
-15 -67 -19 -109 -2 -19 -4 -35 -5 -35 -10 0 -14 -319 -5 -415 8 -84 13 -135
15 -135 1 0 3 -11 5 -25 4 -40 14 -103 21 -130 3 -14 8 -38 11 -55 8 -46 61
-250 74 -282 6 -15 12 -35 14 -43 2 -8 18 -60 35 -115 17 -55 32 -109 35 -120
2 -11 7 -31 11 -45 3 -14 8 -36 10 -50 2 -14 8 -45 13 -70 9 -45 16 -93 31
-205 4 -33 6 -145 4 -250 -4 -225 -6 -255 -17 -255 -5 0 -6 -4 -2 -10 3 -5 -1
-38 -9 -74 -9 -35 -17 -75 -20 -87 -21 -113 -137 -355 -208 -433 -10 -11 -18
-23 -18 -28 0 -17 -66 -48 -103 -48 -76 0 -133 43 -186 142 -35 65 -74 192
-86 278 -2 14 -5 25 -6 25 -2 0 -3 7 -14 90 -11 82 -15 125 -21 215 -7 99 -7
567 0 655 2 33 7 103 11 155 4 52 9 109 10 125 27 296 19 466 -30 675 -8 32
-14 59 -19 87 -20 99 -86 299 -153 468 -47 116 -181 390 -214 436 -10 15 -19
30 -19 33 0 9 -203 323 -237 366 -6 8 -60 78 -119 155 -60 77 -113 145 -119
151 -54 60 -195 268 -195 289 0 2 -13 26 -28 52 -16 26 -29 51 -30 56 -1 4
-11 29 -23 55 -56 124 -160 422 -174 497 -3 19 -8 39 -20 83 -2 9 -11 49 -20
87 -8 39 -18 81 -21 95 -3 14 -12 63 -20 110 -8 47 -17 96 -19 110 -18 90 -40
275 -50 415 -12 155 -28 200 -82 224 -42 19 -106 24 -120 10z m-1716 -5352
c39 -26 62 -78 58 -127 -6 -60 -15 -136 -19 -156 -2 -10 -7 -50 -11 -87 -3
-37 -8 -78 -10 -89 -3 -12 -7 -46 -10 -77 -3 -31 -7 -67 -10 -81 -3 -14 -7
-41 -9 -61 -2 -19 -11 -49 -19 -66 -16 -29 -64 -70 -79 -65 -5 1 -8 -2 -8 -7
0 -6 -8 -8 -17 -7 -10 2 -37 7 -59 11 -41 6 -73 33 -100 81 -11 20 -11 89 0
164 4 25 8 61 10 80 5 42 15 124 21 165 8 60 19 150 19 173 1 12 5 22 9 22 5
0 5 5 2 10 -11 17 15 79 43 106 52 48 129 52 189 11z m-139 -1214 c53 -39 61
-73 54 -228 -5 -136 -6 -345 -2 -512 2 -79 1 -84 -29 -122 -33 -41 -42 -46
-98 -56 -67 -11 -146 46 -160 115 -9 45 -10 506 -1 632 8 111 22 145 77 177
44 27 119 24 159 -6z"/>
<path d="M7011 8333 c-40 -8 -114 -92 -156 -178 -22 -44 -40 -82 -41 -85 0 -3
-3 -12 -6 -20 -4 -8 -9 -24 -11 -35 -3 -11 -15 -51 -26 -90 -20 -66 -35 -150
-33 -187 1 -30 32 -82 60 -103 20 -15 43 -20 90 -20 60 0 64 2 97 38 19 21 35
41 36 45 0 4 2 14 4 22 2 8 6 31 10 50 22 126 78 270 121 317 100 107 2 272
-145 246z"/>
<path d="M1379 7466 c-36 -18 -55 -42 -79 -96 -12 -29 10 -96 46 -135 19 -21
43 -52 52 -69 9 -17 21 -34 25 -37 5 -3 9 -10 9 -15 0 -5 11 -33 25 -63 13
-30 26 -66 30 -80 3 -14 8 -30 12 -36 3 -5 7 -19 8 -29 7 -40 47 -96 82 -113
64 -30 130 -17 178 37 22 24 41 83 34 105 -2 6 -5 21 -8 34 -16 86 -90 262
-148 351 -98 152 -176 195 -266 146z"/>
</g>
</svg>
